<svg xmlns="http://www.w3.org/2000/svg" xmlns:xlink="http://www.w3.org/1999/xlink" width="500" zoomAndPan="magnify" viewBox="0 0 375 374.999991" height="500" preserveAspectRatio="xMidYMid meet" version="1.2"><defs><clipPath id="5139f2ab05"><path d="M 89 129 L 223 129 L 223 253.597656 L 89 253.597656 Z M 89 129 "/></clipPath><clipPath id="a86fbd761e"><path d="M 124 121.597656 L 127 121.597656 L 127 141 L 124 141 Z M 124 121.597656 "/></clipPath><clipPath id="2ef5934eb7"><path d="M 76.375 149 L 94 149 L 94 159 L 76.375 159 Z M 76.375 149 "/></clipPath></defs><g id="c573b731f3"><g style="fill:#ffc700;fill-opacity:1;"><g transform="translate(156.464541, 201.432409)"><path style="stroke:none" d="M 16.5625 0 L 2.609375 0 L 2.609375 -21.96875 L 6.640625 -21.96875 L 6.640625 -3.609375 L 16.5625 -3.609375 Z M 16.5625 0 "/></g></g><g style="fill:#ffc700;fill-opacity:1;"><g transform="translate(172.940027, 201.432409)"><path style="stroke:none" d="M 18.09375 -8.59375 C 18.09375 -8.382812 18.085938 -8.1875 18.078125 -8 C 18.066406 -7.820312 18.046875 -7.578125 18.015625 -7.265625 L 5.046875 -7.265625 C 5.179688 -6.359375 5.46875 -5.585938 5.90625 -4.953125 C 6.34375 -4.316406 6.882812 -3.828125 7.53125 -3.484375 C 8.175781 -3.148438 8.878906 -2.984375 9.640625 -2.984375 C 10.628906 -2.984375 11.429688 -3.179688 12.046875 -3.578125 C 12.660156 -3.972656 13.109375 -4.519531 13.390625 -5.21875 L 17.65625 -5.21875 C 17.445312 -4.476562 17.109375 -3.757812 16.640625 -3.0625 C 16.171875 -2.375 15.597656 -1.765625 14.921875 -1.234375 C 14.242188 -0.703125 13.46875 -0.28125 12.59375 0.03125 C 11.71875 0.34375 10.757812 0.5 9.71875 0.5 C 8.46875 0.5 7.316406 0.269531 6.265625 -0.1875 C 5.222656 -0.644531 4.316406 -1.273438 3.546875 -2.078125 C 2.773438 -2.890625 2.175781 -3.828125 1.75 -4.890625 C 1.320312 -5.960938 1.109375 -7.097656 1.109375 -8.296875 C 1.109375 -9.515625 1.320312 -10.65625 1.75 -11.71875 C 2.175781 -12.78125 2.773438 -13.710938 3.546875 -14.515625 C 4.316406 -15.328125 5.222656 -15.960938 6.265625 -16.421875 C 7.316406 -16.878906 8.46875 -17.109375 9.71875 -17.109375 C 10.96875 -17.109375 12.109375 -16.878906 13.140625 -16.421875 C 14.171875 -15.972656 15.050781 -15.351562 15.78125 -14.5625 C 16.519531 -13.769531 17.085938 -12.859375 17.484375 -11.828125 C 17.890625 -10.804688 18.09375 -9.726562 18.09375 -8.59375 Z M 5.203125 -10.28125 L 14.09375 -10.28125 C 14.039062 -10.90625 13.8125 -11.472656 13.40625 -11.984375 C 13 -12.503906 12.472656 -12.921875 11.828125 -13.234375 C 11.179688 -13.546875 10.472656 -13.703125 9.703125 -13.703125 C 9.046875 -13.703125 8.414062 -13.578125 7.8125 -13.328125 C 7.207031 -13.085938 6.675781 -12.71875 6.21875 -12.21875 C 5.769531 -11.71875 5.429688 -11.070312 5.203125 -10.28125 Z M 5.203125 -10.28125 "/></g></g><g style="fill:#ffc700;fill-opacity:1;"><g transform="translate(191.192379, 201.432409)"><path style="stroke:none" d="M 8.9375 0.5 C 7.8125 0.5 6.769531 0.273438 5.8125 -0.171875 C 4.863281 -0.628906 4.035156 -1.257812 3.328125 -2.0625 C 2.628906 -2.875 2.082031 -3.8125 1.6875 -4.875 C 1.300781 -5.945312 1.109375 -7.085938 1.109375 -8.296875 C 1.109375 -9.515625 1.304688 -10.65625 1.703125 -11.71875 C 2.097656 -12.78125 2.644531 -13.710938 3.34375 -14.515625 C 4.050781 -15.328125 4.878906 -15.960938 5.828125 -16.421875 C 6.773438 -16.878906 7.804688 -17.109375 8.921875 -17.109375 C 10.273438 -17.109375 11.476562 -16.8125 12.53125 -16.21875 C 13.582031 -15.632812 14.375 -14.828125 14.90625 -13.796875 L 14.90625 -16.609375 L 18.625 -16.609375 L 18.625 0 L 14.90625 0 L 14.90625 -2.796875 C 14.363281 -1.765625 13.566406 -0.957031 12.515625 -0.375 C 11.472656 0.207031 10.28125 0.5 8.9375 0.5 Z M 9.875 -3.125 C 10.550781 -3.125 11.179688 -3.253906 11.765625 -3.515625 C 12.359375 -3.773438 12.878906 -4.140625 13.328125 -4.609375 C 13.773438 -5.078125 14.125 -5.625 14.375 -6.25 C 14.625 -6.882812 14.75 -7.566406 14.75 -8.296875 C 14.75 -9.023438 14.617188 -9.703125 14.359375 -10.328125 C 14.109375 -10.960938 13.757812 -11.515625 13.3125 -11.984375 C 12.875 -12.453125 12.359375 -12.816406 11.765625 -13.078125 C 11.179688 -13.347656 10.550781 -13.484375 9.875 -13.484375 C 8.976562 -13.484375 8.160156 -13.265625 7.421875 -12.828125 C 6.679688 -12.398438 6.085938 -11.800781 5.640625 -11.03125 C 5.203125 -10.257812 4.984375 -9.347656 4.984375 -8.296875 C 4.984375 -7.222656 5.207031 -6.296875 5.65625 -5.515625 C 6.101562 -4.742188 6.695312 -4.148438 7.4375 -3.734375 C 8.1875 -3.328125 9 -3.125 9.875 -3.125 Z M 9.875 -3.125 "/></g></g><g style="fill:#ffc700;fill-opacity:1;"><g transform="translate(211.383132, 201.432409)"><path style="stroke:none" d="M 6.203125 0 L 2.296875 0 L 2.296875 -16.609375 L 6.046875 -16.609375 L 6.046875 -13.59375 C 6.429688 -14.507812 7 -15.238281 7.75 -15.78125 C 8.507812 -16.332031 9.425781 -16.609375 10.5 -16.609375 L 12.28125 -16.609375 L 12.28125 -13.25 L 10.703125 -13.25 C 9.816406 -13.25 9.03125 -13.03125 8.34375 -12.59375 C 7.664062 -12.164062 7.140625 -11.539062 6.765625 -10.71875 C 6.390625 -9.90625 6.203125 -8.90625 6.203125 -7.71875 Z M 6.203125 0 "/></g></g><g style="fill:#ffc700;fill-opacity:1;"><g transform="translate(223.432604, 201.432409)"><path style="stroke:none" d="M 6.203125 0 L 2.296875 0 L 2.296875 -16.609375 L 6.015625 -16.609375 L 6.015625 -14.015625 C 6.335938 -14.617188 6.773438 -15.148438 7.328125 -15.609375 C 7.890625 -16.078125 8.539062 -16.441406 9.28125 -16.703125 C 10.03125 -16.972656 10.828125 -17.109375 11.671875 -17.109375 C 13.898438 -17.109375 15.566406 -16.398438 16.671875 -14.984375 C 17.785156 -13.566406 18.34375 -11.554688 18.34375 -8.953125 L 18.34375 0 L 14.4375 0 L 14.4375 -8.859375 C 14.4375 -10.515625 14.09375 -11.703125 13.40625 -12.421875 C 12.71875 -13.140625 11.78125 -13.5 10.59375 -13.5 C 9.832031 -13.5 9.117188 -13.304688 8.453125 -12.921875 C 7.785156 -12.535156 7.242188 -11.96875 6.828125 -11.21875 C 6.410156 -10.476562 6.203125 -9.566406 6.203125 -8.484375 Z M 6.203125 0 "/></g></g><g style="fill:#ffc700;fill-opacity:1;"><g transform="translate(243.219517, 201.432409)"><path style="stroke:none" d="M 4.21875 -19.1875 C 3.457031 -19.1875 2.863281 -19.40625 2.4375 -19.84375 C 2.019531 -20.28125 1.8125 -20.8125 1.8125 -21.4375 C 1.8125 -22.039062 2.019531 -22.5625 2.4375 -23 C 2.863281 -23.4375 3.460938 -23.65625 4.234375 -23.65625 C 5.015625 -23.65625 5.617188 -23.4375 6.046875 -23 C 6.472656 -22.5625 6.6875 -22.039062 6.6875 -21.4375 C 6.6875 -20.8125 6.472656 -20.28125 6.046875 -19.84375 C 5.617188 -19.40625 5.007812 -19.1875 4.21875 -19.1875 Z M 6.203125 0 L 2.296875 0 L 2.296875 -16.609375 L 6.203125 -16.609375 Z M 6.203125 0 "/></g></g><g style="fill:#ffc700;fill-opacity:1;"><g transform="translate(250.972202, 201.432409)"><path style="stroke:none" d="M 9.6875 0.5 C 8.445312 0.5 7.304688 0.269531 6.265625 -0.1875 C 5.222656 -0.644531 4.316406 -1.273438 3.546875 -2.078125 C 2.773438 -2.890625 2.175781 -3.828125 1.75 -4.890625 C 1.320312 -5.960938 1.109375 -7.097656 1.109375 -8.296875 C 1.109375 -9.503906 1.320312 -10.640625 1.75 -11.703125 C 2.175781 -12.765625 2.773438 -13.703125 3.546875 -14.515625 C 4.316406 -15.328125 5.222656 -15.960938 6.265625 -16.421875 C 7.304688 -16.878906 8.445312 -17.109375 9.6875 -17.109375 C 11.125 -17.109375 12.40625 -16.828125 13.53125 -16.265625 C 14.65625 -15.710938 15.59375 -14.957031 16.34375 -14 C 17.101562 -13.039062 17.640625 -11.953125 17.953125 -10.734375 L 13.96875 -10.734375 C 13.601562 -11.660156 13.035156 -12.347656 12.265625 -12.796875 C 11.503906 -13.242188 10.648438 -13.46875 9.703125 -13.46875 C 9.097656 -13.46875 8.515625 -13.351562 7.953125 -13.125 C 7.398438 -12.894531 6.898438 -12.554688 6.453125 -12.109375 C 6.003906 -11.671875 5.644531 -11.128906 5.375 -10.484375 C 5.113281 -9.847656 4.984375 -9.117188 4.984375 -8.296875 C 4.984375 -7.484375 5.113281 -6.753906 5.375 -6.109375 C 5.644531 -5.472656 6.003906 -4.929688 6.453125 -4.484375 C 6.898438 -4.035156 7.40625 -3.695312 7.96875 -3.46875 C 8.53125 -3.238281 9.109375 -3.125 9.703125 -3.125 C 10.648438 -3.125 11.503906 -3.351562 12.265625 -3.8125 C 13.035156 -4.28125 13.601562 -5.035156 13.96875 -6.078125 L 17.9375 -6.078125 C 17.664062 -4.796875 17.144531 -3.65625 16.375 -2.65625 C 15.613281 -1.664062 14.664062 -0.890625 13.53125 -0.328125 C 12.394531 0.222656 11.113281 0.5 9.6875 0.5 Z M 9.6875 0.5 "/></g></g><g style="fill:#ffc700;fill-opacity:1;"><g transform="translate(269.063022, 201.432409)"><path style="stroke:none" d="M 8.9375 0.5 C 7.8125 0.5 6.769531 0.273438 5.8125 -0.171875 C 4.863281 -0.628906 4.035156 -1.257812 3.328125 -2.0625 C 2.628906 -2.875 2.082031 -3.8125 1.6875 -4.875 C 1.300781 -5.945312 1.109375 -7.085938 1.109375 -8.296875 C 1.109375 -9.515625 1.304688 -10.65625 1.703125 -11.71875 C 2.097656 -12.78125 2.644531 -13.710938 3.34375 -14.515625 C 4.050781 -15.328125 4.878906 -15.960938 5.828125 -16.421875 C 6.773438 -16.878906 7.804688 -17.109375 8.921875 -17.109375 C 10.273438 -17.109375 11.476562 -16.8125 12.53125 -16.21875 C 13.582031 -15.632812 14.375 -14.828125 14.90625 -13.796875 L 14.90625 -16.609375 L 18.625 -16.609375 L 18.625 0 L 14.90625 0 L 14.90625 -2.796875 C 14.363281 -1.765625 13.566406 -0.957031 12.515625 -0.375 C 11.472656 0.207031 10.28125 0.5 8.9375 0.5 Z M 9.875 -3.125 C 10.550781 -3.125 11.179688 -3.253906 11.765625 -3.515625 C 12.359375 -3.773438 12.878906 -4.140625 13.328125 -4.609375 C 13.773438 -5.078125 14.125 -5.625 14.375 -6.25 C 14.625 -6.882812 14.75 -7.566406 14.75 -8.296875 C 14.75 -9.023438 14.617188 -9.703125 14.359375 -10.328125 C 14.109375 -10.960938 13.757812 -11.515625 13.3125 -11.984375 C 12.875 -12.453125 12.359375 -12.816406 11.765625 -13.078125 C 11.179688 -13.347656 10.550781 -13.484375 9.875 -13.484375 C 8.976562 -13.484375 8.160156 -13.265625 7.421875 -12.828125 C 6.679688 -12.398438 6.085938 -11.800781 5.640625 -11.03125 C 5.203125 -10.257812 4.984375 -9.347656 4.984375 -8.296875 C 4.984375 -7.222656 5.207031 -6.296875 5.65625 -5.515625 C 6.101562 -4.742188 6.695312 -4.148438 7.4375 -3.734375 C 8.1875 -3.328125 9 -3.125 9.875 -3.125 Z M 9.875 -3.125 "/></g></g><g style="fill:#ffffff;fill-opacity:1;"><g transform="translate(147.57001, 226.182408)"><path style="stroke:none" d="M 22.234375 0 L 18 0 L 16.25 -4.25 L 6.140625 -4.25 L 4.390625 0 L 0.140625 0 L 9.28125 -21.984375 L 13.09375 -21.984375 Z M 11.046875 -16.265625 L 7.515625 -7.609375 L 14.875 -7.609375 L 11.328125 -16.265625 L 11.21875 -16.796875 L 11.171875 -16.796875 Z M 11.046875 -16.265625 "/></g></g><g style="fill:#ffffff;fill-opacity:1;"><g transform="translate(169.974691, 226.182408)"><path style="stroke:none" d="M 9.6875 0.5 C 8.445312 0.5 7.304688 0.269531 6.265625 -0.1875 C 5.222656 -0.644531 4.316406 -1.273438 3.546875 -2.078125 C 2.773438 -2.890625 2.175781 -3.828125 1.75 -4.890625 C 1.320312 -5.960938 1.109375 -7.097656 1.109375 -8.296875 C 1.109375 -9.503906 1.320312 -10.640625 1.75 -11.703125 C 2.175781 -12.765625 2.773438 -13.703125 3.546875 -14.515625 C 4.316406 -15.328125 5.222656 -15.960938 6.265625 -16.421875 C 7.304688 -16.878906 8.445312 -17.109375 9.6875 -17.109375 C 11.125 -17.109375 12.40625 -16.828125 13.53125 -16.265625 C 14.65625 -15.710938 15.59375 -14.957031 16.34375 -14 C 17.101562 -13.039062 17.640625 -11.953125 17.953125 -10.734375 L 13.96875 -10.734375 C 13.601562 -11.660156 13.035156 -12.347656 12.265625 -12.796875 C 11.503906 -13.242188 10.648438 -13.46875 9.703125 -13.46875 C 9.097656 -13.46875 8.515625 -13.351562 7.953125 -13.125 C 7.398438 -12.894531 6.898438 -12.554688 6.453125 -12.109375 C 6.003906 -11.671875 5.644531 -11.128906 5.375 -10.484375 C 5.113281 -9.847656 4.984375 -9.117188 4.984375 -8.296875 C 4.984375 -7.484375 5.113281 -6.753906 5.375 -6.109375 C 5.644531 -5.472656 6.003906 -4.929688 6.453125 -4.484375 C 6.898438 -4.035156 7.40625 -3.695312 7.96875 -3.46875 C 8.53125 -3.238281 9.109375 -3.125 9.703125 -3.125 C 10.648438 -3.125 11.503906 -3.351562 12.265625 -3.8125 C 13.035156 -4.28125 13.601562 -5.035156 13.96875 -6.078125 L 17.9375 -6.078125 C 17.664062 -4.796875 17.144531 -3.65625 16.375 -2.65625 C 15.613281 -1.664062 14.664062 -0.890625 13.53125 -0.328125 C 12.394531 0.222656 11.113281 0.5 9.6875 0.5 Z M 9.6875 0.5 "/></g></g><g style="fill:#ffffff;fill-opacity:1;"><g transform="translate(188.793331, 226.182408)"><path style="stroke:none" d="M 8.9375 0.5 C 7.8125 0.5 6.769531 0.273438 5.8125 -0.171875 C 4.863281 -0.628906 4.035156 -1.257812 3.328125 -2.0625 C 2.628906 -2.875 2.082031 -3.8125 1.6875 -4.875 C 1.300781 -5.945312 1.109375 -7.085938 1.109375 -8.296875 C 1.109375 -9.515625 1.304688 -10.65625 1.703125 -11.71875 C 2.097656 -12.78125 2.644531 -13.710938 3.34375 -14.515625 C 4.050781 -15.328125 4.878906 -15.960938 5.828125 -16.421875 C 6.773438 -16.878906 7.804688 -17.109375 8.921875 -17.109375 C 10.273438 -17.109375 11.476562 -16.8125 12.53125 -16.21875 C 13.582031 -15.632812 14.375 -14.828125 14.90625 -13.796875 L 14.90625 -16.609375 L 18.625 -16.609375 L 18.625 0 L 14.90625 0 L 14.90625 -2.796875 C 14.363281 -1.765625 13.566406 -0.957031 12.515625 -0.375 C 11.472656 0.207031 10.28125 0.5 8.9375 0.5 Z M 9.875 -3.125 C 10.550781 -3.125 11.179688 -3.253906 11.765625 -3.515625 C 12.359375 -3.773438 12.878906 -4.140625 13.328125 -4.609375 C 13.773438 -5.078125 14.125 -5.625 14.375 -6.25 C 14.625 -6.882812 14.75 -7.566406 14.75 -8.296875 C 14.75 -9.023438 14.617188 -9.703125 14.359375 -10.328125 C 14.109375 -10.960938 13.757812 -11.515625 13.3125 -11.984375 C 12.875 -12.453125 12.359375 -12.816406 11.765625 -13.078125 C 11.179688 -13.347656 10.550781 -13.484375 9.875 -13.484375 C 8.976562 -13.484375 8.160156 -13.265625 7.421875 -12.828125 C 6.679688 -12.398438 6.085938 -11.800781 5.640625 -11.03125 C 5.203125 -10.257812 4.984375 -9.347656 4.984375 -8.296875 C 4.984375 -7.222656 5.207031 -6.296875 5.65625 -5.515625 C 6.101562 -4.742188 6.695312 -4.148438 7.4375 -3.734375 C 8.1875 -3.328125 9 -3.125 9.875 -3.125 Z M 9.875 -3.125 "/></g></g><g style="fill:#ffffff;fill-opacity:1;"><g transform="translate(209.711905, 226.182408)"><path style="stroke:none" d="M 9.140625 0.5 C 7.960938 0.5 6.878906 0.273438 5.890625 -0.171875 C 4.910156 -0.628906 4.066406 -1.257812 3.359375 -2.0625 C 2.648438 -2.875 2.097656 -3.8125 1.703125 -4.875 C 1.304688 -5.945312 1.109375 -7.085938 1.109375 -8.296875 C 1.109375 -9.515625 1.300781 -10.65625 1.6875 -11.71875 C 2.070312 -12.78125 2.617188 -13.710938 3.328125 -14.515625 C 4.046875 -15.328125 4.898438 -15.960938 5.890625 -16.421875 C 6.878906 -16.878906 7.976562 -17.109375 9.1875 -17.109375 C 10.09375 -17.109375 10.914062 -16.945312 11.65625 -16.625 C 12.394531 -16.3125 13.03125 -15.910156 13.5625 -15.421875 C 14.09375 -14.929688 14.503906 -14.421875 14.796875 -13.890625 L 14.71875 -15.625 L 14.71875 -22.734375 L 18.609375 -22.734375 L 18.609375 0 L 14.890625 0 L 14.890625 -2.796875 C 14.566406 -2.210938 14.128906 -1.671875 13.578125 -1.171875 C 13.035156 -0.671875 12.390625 -0.269531 11.640625 0.03125 C 10.898438 0.34375 10.066406 0.5 9.140625 0.5 Z M 9.859375 -3.09375 C 10.535156 -3.09375 11.164062 -3.222656 11.75 -3.484375 C 12.34375 -3.753906 12.863281 -4.125 13.3125 -4.59375 C 13.757812 -5.070312 14.109375 -5.625 14.359375 -6.25 C 14.617188 -6.882812 14.75 -7.566406 14.75 -8.296875 C 14.75 -9.035156 14.625 -9.71875 14.375 -10.34375 C 14.125 -10.96875 13.773438 -11.515625 13.328125 -11.984375 C 12.878906 -12.453125 12.359375 -12.816406 11.765625 -13.078125 C 11.179688 -13.347656 10.546875 -13.484375 9.859375 -13.484375 C 8.941406 -13.484375 8.109375 -13.257812 7.359375 -12.8125 C 6.617188 -12.363281 6.03125 -11.75 5.59375 -10.96875 C 5.164062 -10.195312 4.953125 -9.304688 4.953125 -8.296875 C 4.953125 -7.316406 5.160156 -6.429688 5.578125 -5.640625 C 6.003906 -4.859375 6.585938 -4.238281 7.328125 -3.78125 C 8.066406 -3.320312 8.910156 -3.09375 9.859375 -3.09375 Z M 9.859375 -3.09375 "/></g></g><g style="fill:#ffffff;fill-opacity:1;"><g transform="translate(230.598173, 226.182408)"><path style="stroke:none" d="M 18.09375 -8.59375 C 18.09375 -8.382812 18.085938 -8.1875 18.078125 -8 C 18.066406 -7.820312 18.046875 -7.578125 18.015625 -7.265625 L 5.046875 -7.265625 C 5.179688 -6.359375 5.46875 -5.585938 5.90625 -4.953125 C 6.34375 -4.316406 6.882812 -3.828125 7.53125 -3.484375 C 8.175781 -3.148438 8.878906 -2.984375 9.640625 -2.984375 C 10.628906 -2.984375 11.429688 -3.179688 12.046875 -3.578125 C 12.660156 -3.972656 13.109375 -4.519531 13.390625 -5.21875 L 17.65625 -5.21875 C 17.445312 -4.476562 17.109375 -3.757812 16.640625 -3.0625 C 16.171875 -2.375 15.597656 -1.765625 14.921875 -1.234375 C 14.242188 -0.703125 13.46875 -0.28125 12.59375 0.03125 C 11.71875 0.34375 10.757812 0.5 9.71875 0.5 C 8.46875 0.5 7.316406 0.269531 6.265625 -0.1875 C 5.222656 -0.644531 4.316406 -1.273438 3.546875 -2.078125 C 2.773438 -2.890625 2.175781 -3.828125 1.75 -4.890625 C 1.320312 -5.960938 1.109375 -7.097656 1.109375 -8.296875 C 1.109375 -9.515625 1.320312 -10.65625 1.75 -11.71875 C 2.175781 -12.78125 2.773438 -13.710938 3.546875 -14.515625 C 4.316406 -15.328125 5.222656 -15.960938 6.265625 -16.421875 C 7.316406 -16.878906 8.46875 -17.109375 9.71875 -17.109375 C 10.96875 -17.109375 12.109375 -16.878906 13.140625 -16.421875 C 14.171875 -15.972656 15.050781 -15.351562 15.78125 -14.5625 C 16.519531 -13.769531 17.085938 -12.859375 17.484375 -11.828125 C 17.890625 -10.804688 18.09375 -9.726562 18.09375 -8.59375 Z M 5.203125 -10.28125 L 14.09375 -10.28125 C 14.039062 -10.90625 13.8125 -11.472656 13.40625 -11.984375 C 13 -12.503906 12.472656 -12.921875 11.828125 -13.234375 C 11.179688 -13.546875 10.472656 -13.703125 9.703125 -13.703125 C 9.046875 -13.703125 8.414062 -13.578125 7.8125 -13.328125 C 7.207031 -13.085938 6.675781 -12.71875 6.21875 -12.21875 C 5.769531 -11.71875 5.429688 -11.070312 5.203125 -10.28125 Z M 5.203125 -10.28125 "/></g></g><g style="fill:#ffffff;fill-opacity:1;"><g transform="translate(249.578346, 226.182408)"><path style="stroke:none" d="M 22.640625 -17.109375 C 24.734375 -17.109375 26.296875 -16.398438 27.328125 -14.984375 C 28.359375 -13.566406 28.875 -11.554688 28.875 -8.953125 L 28.875 0 L 25.015625 0 L 25.015625 -8.859375 C 25.015625 -10.503906 24.695312 -11.6875 24.0625 -12.40625 C 23.4375 -13.132812 22.585938 -13.5 21.515625 -13.5 C 20.828125 -13.5 20.175781 -13.289062 19.5625 -12.875 C 18.945312 -12.457031 18.453125 -11.867188 18.078125 -11.109375 C 17.703125 -10.359375 17.515625 -9.484375 17.515625 -8.484375 L 17.515625 0 L 13.640625 0 L 13.640625 -8.859375 C 13.640625 -10.503906 13.328125 -11.6875 12.703125 -12.40625 C 12.078125 -13.132812 11.226562 -13.5 10.15625 -13.5 C 9.457031 -13.5 8.800781 -13.289062 8.1875 -12.875 C 7.582031 -12.457031 7.09375 -11.867188 6.71875 -11.109375 C 6.34375 -10.359375 6.15625 -9.484375 6.15625 -8.484375 L 6.15625 0 L 2.296875 0 L 2.296875 -16.609375 L 5.9375 -16.609375 L 5.984375 -14.015625 C 6.273438 -14.609375 6.679688 -15.132812 7.203125 -15.59375 C 7.722656 -16.0625 8.328125 -16.429688 9.015625 -16.703125 C 9.710938 -16.972656 10.472656 -17.109375 11.296875 -17.109375 C 12.679688 -17.109375 13.832031 -16.785156 14.75 -16.140625 C 15.675781 -15.503906 16.367188 -14.578125 16.828125 -13.359375 C 17.535156 -14.640625 18.382812 -15.582031 19.375 -16.1875 C 20.375 -16.800781 21.460938 -17.109375 22.640625 -17.109375 Z M 22.640625 -17.109375 "/></g></g><g style="fill:#ffffff;fill-opacity:1;"><g transform="translate(280.625055, 226.182408)"><path style="stroke:none" d="M 3.578125 5.671875 L 0.796875 5.671875 L 0.796875 2.4375 L 3.546875 2.4375 C 4.128906 2.4375 4.609375 2.34375 4.984375 2.15625 C 5.359375 1.96875 5.671875 1.675781 5.921875 1.28125 C 6.179688 0.894531 6.425781 0.398438 6.65625 -0.203125 L 6.84375 -0.78125 L 0.484375 -16.609375 L 4.609375 -16.609375 L 8.515625 -6.5625 L 8.9375 -4.84375 L 9.375 -6.546875 L 13.21875 -16.59375 L 17.375 -16.609375 L 10.90625 -0.375 C 10.414062 0.863281 9.925781 1.878906 9.4375 2.671875 C 8.957031 3.460938 8.441406 4.078125 7.890625 4.515625 C 7.335938 4.953125 6.710938 5.253906 6.015625 5.421875 C 5.316406 5.585938 4.503906 5.671875 3.578125 5.671875 Z M 3.578125 5.671875 "/></g></g><g clip-rule="nonzero" clip-path="url(#5139f2ab05)"><path style=" stroke:none;fill-rule:nonzero;fill:#ffc700;fill-opacity:1;" d="M 221.527344 136.929688 L 219.53125 133.257812 C 218.730469 131.785156 217.410156 130.71875 215.808594 130.246094 C 214.210938 129.777344 212.523438 129.957031 211.0625 130.757812 L 155.914062 160.9375 C 149.320312 150.695312 137.796875 144.378906 125.566406 144.378906 C 110.757812 144.378906 97.238281 153.636719 91.933594 167.414062 C 89.519531 173.679688 88.921875 180.503906 90.207031 187.148438 C 91.480469 193.746094 94.542969 199.851562 99.058594 204.808594 C 101.261719 207.230469 102.875 210.152344 103.722656 213.253906 L 107.050781 225.707031 C 105.867188 226.550781 105.089844 227.925781 105.089844 229.480469 L 105.089844 231.273438 C 105.089844 233.128906 106.191406 234.726562 107.773438 235.464844 C 107.195312 236.238281 106.847656 237.191406 106.847656 238.230469 L 106.847656 240.019531 C 106.847656 241.875 107.945312 243.472656 109.527344 244.210938 C 108.949219 244.984375 108.601562 245.9375 108.601562 246.976562 L 108.601562 248.765625 C 108.601562 251.320312 110.6875 253.398438 113.25 253.398438 L 137.882812 253.398438 C 140.445312 253.398438 142.53125 251.320312 142.53125 248.765625 L 142.53125 246.976562 C 142.53125 245.9375 142.183594 244.984375 141.605469 244.210938 C 143.1875 243.472656 144.289062 241.875 144.289062 240.019531 L 144.289062 238.230469 C 144.289062 237.191406 143.941406 236.238281 143.363281 235.464844 C 144.945312 234.726562 146.046875 233.128906 146.046875 231.273438 L 146.046875 229.480469 C 146.046875 226.925781 143.960938 224.847656 141.398438 224.847656 L 135.292969 224.847656 L 135.292969 208.179688 C 135.292969 205.707031 136.292969 203.285156 138.109375 201.363281 C 141.011719 198.289062 141.902344 193.855469 140.332031 190.328125 C 139.226562 187.847656 136.957031 185.933594 134.101562 185.082031 C 131.242188 184.230469 128.171875 184.574219 125.566406 186.023438 C 122.964844 184.574219 119.890625 184.230469 117.035156 185.082031 C 114.179688 185.933594 111.910156 187.847656 110.804688 190.328125 C 109.230469 193.855469 110.125 198.292969 113.023438 201.363281 C 114.84375 203.285156 115.84375 205.707031 115.84375 208.179688 L 115.84375 224.847656 L 109.222656 224.878906 L 105.953125 212.652344 C 105.011719 209.191406 103.21875 205.941406 100.769531 203.253906 C 92.160156 193.804688 89.539062 180.0625 94.089844 168.246094 C 99.054688 155.355469 111.707031 146.691406 125.566406 146.691406 C 137.078125 146.691406 147.921875 152.675781 154.074219 162.355469 L 147.957031 173.695312 C 147.773438 174.039062 147.773438 174.457031 147.960938 174.800781 C 148.148438 175.140625 148.496094 175.367188 148.886719 175.398438 L 162.019531 176.40625 C 162.242188 176.40625 162.460938 176.371094 162.664062 176.265625 L 219.035156 145.417969 C 222.054688 143.765625 223.171875 139.957031 221.527344 136.929688 Z M 140.21875 248.765625 C 140.21875 250.046875 139.171875 251.089844 137.882812 251.089844 L 113.25 251.089844 C 111.964844 251.089844 110.914062 250.046875 110.914062 248.765625 L 110.914062 246.976562 C 110.914062 245.695312 111.960938 244.65625 113.25 244.652344 L 137.886719 244.652344 C 139.171875 244.65625 140.21875 245.695312 140.21875 246.976562 Z M 141.976562 240.019531 C 141.976562 241.300781 140.929688 242.339844 139.640625 242.339844 L 111.496094 242.339844 C 110.207031 242.339844 109.160156 241.300781 109.160156 240.019531 L 109.160156 238.230469 C 109.160156 236.949219 110.207031 235.90625 111.496094 235.90625 L 139.640625 235.90625 C 140.929688 235.90625 141.976562 236.949219 141.976562 238.230469 Z M 125.566406 188.703125 C 127.207031 189.75 128.21875 191.410156 128.25 193.148438 C 128.273438 194.554688 127.652344 196.179688 126.742188 197.105469 C 126.34375 197.511719 125.925781 197.734375 125.566406 197.734375 C 125.207031 197.734375 124.789062 197.511719 124.390625 197.105469 C 123.480469 196.179688 122.863281 194.554688 122.886719 193.148438 C 122.914062 191.40625 123.925781 189.75 125.566406 188.703125 Z M 114.707031 199.773438 C 112.4375 197.375 111.71875 193.957031 112.914062 191.269531 C 113.746094 189.40625 115.488281 187.957031 117.695312 187.300781 C 119.550781 186.746094 121.519531 186.832031 123.304688 187.515625 C 121.621094 188.972656 120.609375 190.988281 120.574219 193.109375 C 120.539062 195.148438 121.390625 197.351562 122.742188 198.726562 C 123.589844 199.589844 124.570312 200.046875 125.566406 200.046875 C 126.566406 200.046875 127.542969 199.589844 128.390625 198.726562 C 129.742188 197.351562 130.59375 195.148438 130.558594 193.109375 C 130.523438 190.988281 129.511719 188.972656 127.828125 187.515625 C 129.613281 186.832031 131.585938 186.746094 133.441406 187.296875 C 135.648438 187.957031 137.386719 189.402344 138.21875 191.269531 C 139.417969 193.957031 138.695312 197.371094 136.429688 199.773438 C 134.203125 202.128906 132.980469 205.113281 132.980469 208.179688 L 132.980469 224.847656 L 118.15625 224.847656 L 118.15625 208.179688 C 118.15625 205.113281 116.929688 202.128906 114.707031 199.773438 Z M 107.402344 229.480469 C 107.402344 228.203125 108.449219 227.160156 109.738281 227.160156 L 141.398438 227.160156 C 142.683594 227.160156 143.734375 228.203125 143.734375 229.480469 L 143.734375 231.273438 C 143.734375 232.554688 142.683594 233.59375 141.398438 233.59375 L 109.738281 233.59375 C 108.449219 233.59375 107.402344 232.554688 107.402344 231.273438 Z M 199.113281 139.933594 C 200.285156 141.101562 201.3125 142.402344 202.183594 143.8125 L 191.949219 149.410156 L 161.269531 166.199219 L 160.574219 166.582031 L 161.21875 164.382812 C 161.398438 163.769531 161.046875 163.128906 160.4375 162.949219 L 158.242188 162.300781 Z M 150.835938 173.226562 L 152.433594 170.269531 C 152.824219 170.738281 153.171875 171.242188 153.464844 171.785156 C 153.761719 172.328125 154 172.898438 154.183594 173.484375 Z M 161.261719 174.027344 L 156.625 173.671875 C 156.386719 172.628906 156.011719 171.625 155.496094 170.679688 C 154.984375 169.734375 154.347656 168.871094 153.601562 168.105469 L 155.816406 163.992188 L 158.671875 164.835938 L 157.566406 168.609375 C 157.371094 169.328125 157.660156 169.84375 158.351562 170.042969 L 162.105469 171.152344 Z M 164.003906 172.898438 L 164.648438 170.699219 C 164.828125 170.085938 164.480469 169.445312 163.867188 169.261719 L 161.671875 168.613281 L 193.058594 151.4375 L 203.285156 145.84375 C 203.996094 147.339844 204.527344 148.910156 204.867188 150.535156 Z M 206.976562 149.382812 C 206.5 147.402344 205.769531 145.5 204.796875 143.703125 C 204.796875 143.703125 204.792969 143.703125 204.792969 143.699219 C 203.816406 141.902344 202.613281 140.257812 201.214844 138.78125 L 203.308594 137.636719 C 204.753906 139.074219 205.980469 140.710938 206.960938 142.511719 C 207.9375 144.3125 208.644531 146.234375 209.066406 148.238281 Z M 211.171875 147.085938 C 210.695312 145.109375 209.964844 143.203125 208.992188 141.40625 C 208.015625 139.609375 206.8125 137.960938 205.410156 136.488281 L 207.503906 135.34375 C 208.949219 136.78125 210.175781 138.414062 211.15625 140.214844 C 212.132812 142.015625 212.839844 143.941406 213.261719 145.941406 Z M 217.925781 143.390625 L 215.367188 144.789062 C 214.890625 142.8125 214.164062 140.90625 213.1875 139.113281 C 212.210938 137.3125 211.007812 135.667969 209.605469 134.191406 L 212.171875 132.785156 C 213.09375 132.28125 214.152344 132.167969 215.15625 132.464844 C 216.164062 132.761719 216.996094 133.433594 217.5 134.359375 L 219.496094 138.035156 C 220.535156 139.945312 219.828125 142.347656 217.925781 143.390625 Z M 217.925781 143.390625 "/></g><g clip-rule="nonzero" clip-path="url(#a86fbd761e)"><path style=" stroke:none;fill-rule:nonzero;fill:#ffc700;fill-opacity:1;" d="M 125.558594 140.699219 C 126.195312 140.699219 126.714844 140.179688 126.714844 139.542969 L 126.714844 122.753906 C 126.714844 122.117188 126.195312 121.597656 125.558594 121.597656 C 124.917969 121.597656 124.402344 122.117188 124.402344 122.753906 L 124.402344 139.542969 C 124.402344 140.179688 124.917969 140.699219 125.558594 140.699219 Z M 125.558594 140.699219 "/></g><path style=" stroke:none;fill-rule:nonzero;fill:#ffc700;fill-opacity:1;" d="M 104.285156 143.777344 C 104.507812 144.113281 104.875 144.292969 105.25 144.292969 C 105.46875 144.292969 105.691406 144.230469 105.886719 144.101562 C 106.417969 143.746094 106.5625 143.03125 106.210938 142.5 L 96.652344 128.109375 C 96.300781 127.578125 95.582031 127.433594 95.050781 127.789062 C 94.519531 128.140625 94.375 128.859375 94.726562 129.390625 Z M 104.285156 143.777344 "/><path style=" stroke:none;fill-rule:nonzero;fill:#ffc700;fill-opacity:1;" d="M 145.226562 144.101562 C 145.425781 144.230469 145.644531 144.292969 145.867188 144.292969 C 146.238281 144.292969 146.605469 144.113281 146.832031 143.777344 L 156.386719 129.390625 C 156.742188 128.859375 156.597656 128.140625 156.0625 127.789062 C 155.53125 127.433594 154.816406 127.578125 154.460938 128.109375 L 144.902344 142.5 C 144.550781 143.03125 144.695312 143.746094 145.226562 144.101562 Z M 145.226562 144.101562 "/><g clip-rule="nonzero" clip-path="url(#2ef5934eb7)"><path style=" stroke:none;fill-rule:nonzero;fill:#ffc700;fill-opacity:1;" d="M 77.25 151.363281 L 91.585938 158.558594 C 91.753906 158.640625 91.929688 158.683594 92.105469 158.683594 C 92.527344 158.683594 92.9375 158.449219 93.140625 158.042969 C 93.425781 157.472656 93.195312 156.777344 92.625 156.492188 L 78.289062 149.296875 C 77.71875 149.011719 77.023438 149.242188 76.738281 149.8125 C 76.449219 150.382812 76.679688 151.078125 77.25 151.363281 Z M 77.25 151.363281 "/></g></g></svg>